<?xml version="1.0" encoding="UTF-8" standalone="no"?>
<!-- Created with Inkscape (http://www.inkscape.org/) -->

<svg
   width="150mm"
   height="150mm"
   viewBox="0 0 150 150"
   version="1.1"
   id="svg1"
   xml:space="preserve"
   inkscape:version="1.3.2 (091e20e, 2023-11-25, custom)"
   sodipodi:docname="Circle.svg"
   xmlns:inkscape="http://www.inkscape.org/namespaces/inkscape"
   xmlns:sodipodi="http://sodipodi.sourceforge.net/DTD/sodipodi-0.dtd"
   xmlns="http://www.w3.org/2000/svg"
   xmlns:svg="http://www.w3.org/2000/svg"><sodipodi:namedview
     id="namedview1"
     pagecolor="#ffffff"
     bordercolor="#000000"
     borderopacity="0.25"
     inkscape:showpageshadow="2"
     inkscape:pageopacity="0.0"
     inkscape:pagecheckerboard="0"
     inkscape:deskcolor="#d1d1d1"
     inkscape:document-units="mm"
     inkscape:zoom="0.44631734"
     inkscape:cx="398.81937"
     inkscape:cy="561.25984"
     inkscape:window-width="1366"
     inkscape:window-height="697"
     inkscape:window-x="-8"
     inkscape:window-y="-8"
     inkscape:window-maximized="1"
     inkscape:current-layer="layer1" /><defs
     id="defs1" /><g
     inkscape:label="Camada 1"
     inkscape:groupmode="layer"
     id="layer1"><path
       style="fill:#000cc7;fill-opacity:1;stroke-width:0.889353"
       d="M 71.587438,132.3642 C 59.639832,131.41468 48.703076,127.03107 39.546241,119.52162 37.604512,117.92923 34.278387,114.68868 32.64319,112.79618 24.395023,103.25015 19.676073,91.721293 18.790705,78.953268 18.5864,76.006939 18.700465,70.620029 19.016348,68.296469 20.822232,55.013093 26.484949,43.603074 35.773611,34.531663 c 2.452601,-2.395232 3.580504,-3.362413 6.120618,-5.24841 14.710102,-10.922076 34.116349,-14.076843 51.620215,-8.391608 19.831646,6.441301 34.746036,23.395964 38.510616,43.778843 1.82029,9.855722 1.20789,19.302556 -1.85352,28.592454 -6.43019,19.512538 -23.0648,34.184938 -43.278748,38.173638 -4.809746,0.94907 -10.611175,1.30069 -15.305354,0.92762 z m 8.225045,-11.42862 c 15.224711,-1.39343 28.530557,-10.02161 36.099397,-23.408666 5.3256,-9.419419 7.00057,-20.679768 4.71988,-31.730434 -1.75737,-8.515057 -6.15728,-16.583144 -12.48608,-22.895621 -8.713601,-8.691168 -20.004468,-13.369388 -32.266922,-13.369388 -7.366537,0 -14.235542,1.631358 -20.686865,4.913045 -4.613328,2.346718 -8.389629,5.138193 -12.15189,8.982769 -7.250909,7.409548 -11.619099,16.670798 -12.809384,27.157899 -0.227756,2.006656 -0.180121,6.931289 0.09212,9.523691 1.622832,15.453347 10.963826,28.964065 25.001089,36.161295 4.643842,2.38101 10.820597,4.14981 16.263611,4.65732 1.803039,0.16811 6.42695,0.17266 8.225045,0.008 z"
       id="path1" /></g></svg>
