<?xml version="1.0" encoding="UTF-8" standalone="no"?>
<!-- Created with Inkscape (http://www.inkscape.org/) -->

<svg
   width="210mm"
   height="297mm"
   viewBox="0 0 210 297"
   version="1.1"
   id="svg1"
   xml:space="preserve"
   inkscape:version="1.3.2 (091e20e, 2023-11-25, custom)"
   sodipodi:docname="notebook.svg"
   xmlns:inkscape="http://www.inkscape.org/namespaces/inkscape"
   xmlns:sodipodi="http://sodipodi.sourceforge.net/DTD/sodipodi-0.dtd"
   xmlns="http://www.w3.org/2000/svg"
   xmlns:svg="http://www.w3.org/2000/svg"><sodipodi:namedview
     id="namedview1"
     pagecolor="#ffffff"
     bordercolor="#000000"
     borderopacity="0.25"
     inkscape:showpageshadow="2"
     inkscape:pageopacity="0.0"
     inkscape:pagecheckerboard="0"
     inkscape:deskcolor="#d1d1d1"
     inkscape:document-units="mm"
     inkscape:zoom="0.44631734"
     inkscape:cx="397.69909"
     inkscape:cy="561.25984"
     inkscape:window-width="1366"
     inkscape:window-height="697"
     inkscape:window-x="-8"
     inkscape:window-y="-8"
     inkscape:window-maximized="1"
     inkscape:current-layer="layer1" /><defs
     id="defs1" /><g
     inkscape:label="Camada 1"
     inkscape:groupmode="layer"
     id="layer1"><path
       style="fill:#000000"
       d="m 70.404135,206.88449 c -1.617013,-0.80803 -2.423082,-1.62276 -3.380768,-3.41708 -0.432738,-0.81078 -0.510722,-1.74933 -0.626548,-7.54063 l -0.132291,-6.61458 -2.513542,-0.13229 c -2.780118,-0.14632 -3.486583,-0.42424 -4.246502,-1.67053 -0.979747,-1.60682 -0.415256,-4.11568 1.12349,-4.99331 0.335209,-0.19119 1.740564,-0.40715 3.123012,-0.47991 l 2.513542,-0.13229 v -3.70417 -3.70417 l -2.513542,-0.13229 c -2.780118,-0.14632 -3.486583,-0.42424 -4.246502,-1.67053 -0.979747,-1.60682 -0.415256,-4.11568 1.12349,-4.99331 0.335209,-0.19119 1.740564,-0.40715 3.123012,-0.47991 l 2.513542,-0.13229 0.07337,-3.60159 0.07337,-3.60159 -2.492197,-0.13036 c -2.751821,-0.14394 -3.787191,-0.61554 -4.537712,-2.06689 -0.827299,-1.59982 -0.21166,-3.97231 1.246605,-4.80404 0.335209,-0.19118 1.740564,-0.40714 3.123012,-0.4799 l 2.513542,-0.1323 0.0734,-3.60614 0.07341,-3.60614 -2.48239,-0.10857 c -2.757759,-0.12062 -3.552165,-0.45969 -4.422936,-1.88779 -1.037232,-1.70111 -0.39524,-4.18434 1.309719,-5.06601 0.544078,-0.28135 1.542479,-0.40972 3.1867,-0.40972 h 2.394389 v -3.6726 -3.6726 l -2.475131,-0.10826 c -2.749956,-0.12027 -3.545491,-0.46032 -4.415677,-1.88747 -1.024597,-1.68038 -0.379545,-4.06423 1.350874,-4.99226 0.676663,-0.3629 1.479836,-0.48347 3.220702,-0.48347 h 2.319232 v -3.70416 -3.70417 l -2.182812,-4.1e-4 c -2.554139,-4.8e-4 -3.711285,-0.457 -4.624934,-1.82465 -1.135078,-1.69911 -0.570215,-3.99845 1.230958,-5.01077 0.823624,-0.4629 1.451772,-0.5725 3.281198,-0.5725 h 2.262569 l 0.08266,-6.68073 c 0.09454,-7.641404 0.16057,-7.905274 2.491489,-9.957024 2.278617,-2.00572 -0.321536,-1.88308 39.924492,-1.88308 40.99929,0 37.82768,-0.17454 40.21538,2.21315 2.47979,2.47979 2.2646,-3.17477 2.18665,57.460184 l -0.0687,53.43603 -0.57289,1.05833 c -0.77091,1.42413 -2.34391,2.89712 -3.79274,3.55159 -1.17847,0.53234 -1.56617,0.53789 -37.99159,0.54364 l -36.800966,0.006 z M 121.69473,148.56637 V 96.840336 H 97.749944 73.805152 v 5.556254 5.55625 h 2.125165 c 1.251013,0 2.500198,0.1567 3.036915,0.38095 1.840959,0.7692 2.579972,3.48331 1.447423,5.31581 -0.726279,1.17514 -2.177529,1.71157 -4.630482,1.71157 h -1.979021 v 3.70417 3.70416 h 2.262098 c 2.598089,0 3.574459,0.37292 4.363197,1.6665 0.302374,0.49591 0.516887,1.32369 0.517466,1.99685 0.0021,2.49543 -1.702733,3.74499 -5.10963,3.74499 h -2.033131 v 3.70416 3.70416 l 2.315104,9.9e-4 c 2.651374,0.001 3.70626,0.44811 4.449482,1.88534 0.578718,1.11912 0.539761,2.79945 -0.08428,3.63529 -1.053021,1.41041 -1.769273,1.71664 -4.297832,1.83753 l -2.382472,0.11391 v 3.6718 3.67181 l 2.315104,9.9e-4 c 2.527552,0.001 3.598189,0.40946 4.439444,1.69338 0.602072,0.91887 0.56548,2.97041 -0.06812,3.81904 -1.037674,1.38986 -1.728838,1.68565 -4.278435,1.83102 l -2.407994,0.1373 v 3.64267 3.64268 l 2.641271,0.0909 c 2.551595,0.0879 2.669268,0.11896 3.465893,0.91609 1.534607,1.53558 1.475538,3.84598 -0.136169,5.32642 -0.919157,0.84429 -0.981812,0.85989 -3.453568,0.85989 h -2.517427 v 3.83646 3.83646 h 2.544669 2.544669 l 1.027206,1.0272 c 0.682272,0.68228 1.03704,1.28199 1.056493,1.78594 0.08086,2.09482 -0.306511,2.96506 -1.697309,3.81308 -0.667554,0.40704 -1.332803,0.51576 -3.160624,0.51654 l -2.315104,9.9e-4 v 5.55625 5.55625 h 23.944791 23.944786 z m 22.225,0 V 96.840336 h -7.40834 -7.40833 v 51.726034 51.72604 h 7.40833 7.40834 z"
       id="path1" /></g></svg>
