<?xml version="1.0" encoding="UTF-8" standalone="no"?>
<!-- Created with Inkscape (http://www.inkscape.org/) -->

<svg
   width="220mm"
   height="220mm"
   viewBox="0 0 220 220"
   version="1.1"
   id="svg1"
   xml:space="preserve"
   inkscape:version="1.3.2 (091e20e, 2023-11-25, custom)"
   sodipodi:docname="X.svg"
   xmlns:inkscape="http://www.inkscape.org/namespaces/inkscape"
   xmlns:sodipodi="http://sodipodi.sourceforge.net/DTD/sodipodi-0.dtd"
   xmlns="http://www.w3.org/2000/svg"
   xmlns:svg="http://www.w3.org/2000/svg"><sodipodi:namedview
     id="namedview1"
     pagecolor="#ffffff"
     bordercolor="#000000"
     borderopacity="0.25"
     inkscape:showpageshadow="2"
     inkscape:pageopacity="0.0"
     inkscape:pagecheckerboard="0"
     inkscape:deskcolor="#d1d1d1"
     inkscape:document-units="mm"
     inkscape:zoom="0.22315867"
     inkscape:rotation="-1"
     inkscape:cx="475.57549"
     inkscape:cy="1126.5101"
     inkscape:window-width="1366"
     inkscape:window-height="697"
     inkscape:window-x="-8"
     inkscape:window-y="-8"
     inkscape:window-maximized="1"
     inkscape:current-layer="layer1" /><defs
     id="defs1" /><g
     inkscape:label="Camada 1"
     inkscape:groupmode="layer"
     id="layer1"><path
       style="fill:#c10000;fill-opacity:1;stroke-width:1.16053"
       d="m 45.020681,180.76579 c -2.151334,-0.90288 -4.21372,-2.80643 -5.346303,-4.93455 -0.719659,-1.35222 -0.817082,-1.88308 -0.817082,-4.45231 0,-2.56881 0.09751,-3.10034 0.816759,-4.45234 0.598655,-1.1253 8.169625,-8.93561 28.351854,-29.2481 L 95.561005,109.96576 68.021245,82.254768 C 47.719779,61.827076 40.268041,54.140251 39.66939,53.008485 c -0.713358,-1.348623 -0.812094,-1.889938 -0.812094,-4.45233 0,-2.561115 0.09911,-3.105111 0.812287,-4.458411 1.916564,-3.636805 5.652645,-5.819262 9.624706,-5.622347 4.236095,0.209998 33.215229,29.224155 33.215229,29.224155 L 110.24863,95.075323 138.0393,67.634296 c 0,0 28.85274,-28.923833 33.15652,-29.151668 2.85444,-0.151113 5.09779,0.681483 7.32788,2.719655 2.30384,2.105584 3.09102,3.971209 3.10291,7.353872 0.008,2.16476 -0.12179,2.88287 -0.75848,4.209698 -0.6254,1.303281 -28.13777,29.17043 -28.13777,29.17043 l -27.60145,27.792947 27.37008,28.03746 c 0,0 28.96245,29.01405 29.21743,33.14112 0.19164,3.10187 -0.67116,5.29237 -2.98067,7.56746 -2.30604,2.27168 -7.53993,2.97718 -7.53993,2.97718 L 139.03659,150.94211 110.2571,124.85979 82.493401,152.24475 c 0,0 -28.987604,29.03518 -33.352641,29.19785 -1.88801,0.0703 -2.630325,-0.0515 -4.120079,-0.67681 z"
       id="path1"
       sodipodi:nodetypes="cssscccsssscccsscscccssccccsc" /></g></svg>
